<?xml version="1.0" standalone="no"?>
<!DOCTYPE svg PUBLIC "-//W3C//DTD SVG 20010904//EN"
 "http://www.w3.org/TR/2001/REC-SVG-20010904/DTD/svg10.dtd">
<svg version="1.0" xmlns="http://www.w3.org/2000/svg"
 width="700.000000pt" height="700.000000pt" viewBox="0 0 700.000000 700.000000" preserveAspectRatio="xMidYMid meet">
<metadata>
Created by potrace 1.14, written by Peter Selinger 2001-2017
</metadata>
<g transform="translate(0.000000,700.000000) scale(0.100000,-0.100000)"
fill="#000000" stroke="none">
<path d="M15 5780 c-3 -5 -8 -126 -12 -269 l-6 -260 34 -5 c19 -3 120 -10 224
-16 689 -38 1412 -303 1985 -729 322 -239 656 -584 855 -883 l78 -118 -78
-117 c-199 -300 -533 -645 -855 -884 -573 -426 -1296 -691 -1985 -729 -104 -6
-205 -13 -224 -16 l-34 -5 6 -261 c4 -150 11 -266 16 -271 7 -7 86 -6 233 2
649 35 1312 232 1883 559 233 134 235 135 470 311 240 179 487 415 695 663 87
103 167 200 179 215 l21 28 23 -30 c12 -16 93 -113 179 -216 544 -647 1257
-1115 2068 -1357 323 -97 655 -155 978 -173 141 -7 227 -8 233 -2 5 5 12 127
16 271 l6 261 -34 5 c-19 3 -119 10 -223 16 -691 37 -1422 307 -1992 734 -327
245 -651 580 -849 879 l-78 117 78 118 c198 298 522 633 849 878 570 427 1301
697 1992 734 104 6 204 13 223 16 l34 5 -6 261 c-4 144 -11 266 -16 271 -6 6
-92 5 -233 -2 -323 -18 -655 -76 -978 -173 -809 -241 -1524 -711 -2069 -1358
-86 -102 -166 -199 -178 -215 l-23 -30 -21 28 c-12 15 -92 112 -179 215 -652
775 -1545 1294 -2535 1472 -286 51 -733 87 -750 60z"/>
</g>
</svg>
